<?xml version="1.0" encoding="utf-8"?>
<!-- Generator: Adobe Illustrator 26.3.1, SVG Export Plug-In . SVG Version: 6.00 Build 0)  -->
<svg version="1.1" id="Слой_1" xmlns="http://www.w3.org/2000/svg" xmlns:xlink="http://www.w3.org/1999/xlink" x="0px" y="0px"
	 viewBox="0 0 15 14" style="enable-background:new 0 0 15 14;" xml:space="preserve">
<style type="text/css">
	.st0{fill:none;stroke:#EBEBEB;stroke-width:0.75;stroke-miterlimit:10;}
</style>
<path class="st0" d="M14.2,3.5c-0.2-0.5-0.5-1-0.9-1.3c-0.4-0.4-0.9-0.7-1.4-0.9c-0.5-0.2-1.1-0.3-1.7-0.3C9.5,0.9,8.7,1.2,8,1.6
	C7.8,1.7,7.7,1.8,7.5,1.9C7.4,1.8,7.2,1.7,7.1,1.6C6.4,1.2,5.6,0.9,4.8,0.9c-0.6,0-1.1,0.1-1.7,0.3c-0.5,0.2-1,0.5-1.4,0.9
	C1.4,2.5,1.1,3,0.9,3.5C0.6,4,0.5,4.6,0.5,5.1c0,0.5,0.1,1.1,0.3,1.7c0.2,0.5,0.4,1,0.8,1.5c0.5,0.8,1.3,1.6,2.2,2.4
	c1.5,1.4,3,2.3,3.1,2.4l0.4,0.2c0.2,0.1,0.4,0.1,0.6,0l0.4-0.2c0.1,0,1.6-1,3.1-2.4c0.9-0.8,1.6-1.7,2.2-2.4c0.3-0.5,0.6-1,0.8-1.5
	c0.2-0.6,0.3-1.1,0.3-1.7C14.5,4.6,14.4,4,14.2,3.5L14.2,3.5z"/>
</svg>
